<?xml version="1.0" standalone="no"?><!DOCTYPE svg PUBLIC "-//W3C//DTD SVG 1.1//EN" "http://www.w3.org/Graphics/SVG/1.1/DTD/svg11.dtd"><svg t="1523863764814" class="icon" style="" viewBox="0 0 1024 1024" version="1.1" xmlns="http://www.w3.org/2000/svg" p-id="534" xmlns:xlink="http://www.w3.org/1999/xlink" width="200" height="200"><defs><style type="text/css"></style></defs><path d="M943.175695 240.981447c-1.052982-0.169869-108.550275-31.321356-236.403175-89.849354-90.545202-41.329291-153.12754-82.132602-182.700065-102.534258l-11.537777-9.667174-11.539824 9.667174C471.420281 69.356624 408.99451 109.98802 318.294788 151.132092 190.224947 209.845309 82.943572 240.811578 81.860914 240.981447l-12.991895 3.758604 1.082658 13.425777c0.896416 11.104919 24.530696 275.112802 153.311735 464.634226 109.818151 161.970952 243.084341 241.428631 281.322224 262.184351l7.764847 4.299933 7.763824-4.299933c38.234813-20.571525 171.502026-100.396571 281.320177-262.184351 128.254036-189.167361 152.2301-453.359438 153.311735-464.634226l1.083681-13.425777L943.175695 240.981447zM774.210445 704.19123C675.034678 850.233398 557.234739 926.288584 512.534677 951.513082c-44.579311-25.054629-162.687266-101.279684-261.677814-247.321852C143.172305 545.635051 111.063003 324.211033 104.596731 268.544199c33.348526-10.379395 123.70851-39.905872 227.740888-87.685062C418.027234 141.481292 479.524866 103.183034 512.689197 80.446193c33.038464 22.551622 94.349855 61.220317 180.349531 100.412944 103.877859 47.77919 194.609303 77.305667 227.802286 87.685062C913.973606 324.211033 882.048499 545.635051 774.210445 704.19123zM356.714819 245.977227c-21.345144 87.497796-54.661947 165.067476-99.95041 232.67527 3.990894 13.270235 8.630564 26.526143 13.982456 39.788192 15.993253-19.897166 30.656207-43.083238 43.958164-69.62473l0 264.531815 36.009122 0L350.714152 373.258099c15.96153-38.436404 29.974685-77.568656 41.946344-117.336382L356.714819 245.977227zM738.480686 494.569002l-159.901827 0 0-51.707662-35.975353 0 0 51.707662L382.700657 494.569002l0 31.851429 127.915321 0c-31.987528 54.373375-79.286788 98.128925-141.898801 131.246183 9.279341 9.265014 17.972327 18.561751 25.954115 27.841092 61.280692-37.09178 110.592794-88.798419 147.931191-155.107637l0 182.947705 35.975353 0L578.577836 530.400069c29.296233 63.634296 75.94467 112.045889 139.916657 145.177474 6.65149-10.641361 14.014178-19.892049 21.994943-27.841092-55.991222-26.510794-100.660584-66.942645-133.946688-121.31602l131.935891 0L738.478639 494.569002zM426.657798 430.92038l269.844821 0L696.502619 265.868253 426.657798 265.868253 426.657798 430.92038zM462.635197 299.680337l195.880249 0 0 97.42796L462.635197 397.108297 462.635197 299.680337z" p-id="535"></path></svg>