<?xml version="1.0" standalone="no"?><!DOCTYPE svg PUBLIC "-//W3C//DTD SVG 1.1//EN" "http://www.w3.org/Graphics/SVG/1.1/DTD/svg11.dtd"><svg t="1523863746680" class="icon" style="" viewBox="0 0 1025 1024" version="1.1" xmlns="http://www.w3.org/2000/svg" p-id="1620" xmlns:xlink="http://www.w3.org/1999/xlink" width="200.1953125" height="200"><defs><style type="text/css"></style></defs><path d="M88.992211 895.295402c0.030286-0.690527 0.070668-1.378026 0.104992-2.067544C89.027545 893.907281 88.992211 894.596799 88.992211 895.295402z" p-id="1621"></path><path d="M337.42859 728.607765c19.868813-1.857559 36.715054-9.700697 50.541753-23.528405 7.843138-7.843138 12.3881-15.088627 13.637914-21.741515 1.247795-6.650868-0.246328-12.096342-4.487418-16.338441-3.660602-3.660602-8.685097-5.547438-15.076513-5.664545-6.389397-0.115088-19.082379 3.746413-38.080966 11.589552-30.03289 12.141772-53.590572 9.67142-70.670018-7.408025-12.548618-12.548618-17.516578-27.069882-14.902871-43.56985 2.614716-16.49593 11.793479-32.619339 27.5373-48.363159 13.186649-13.186649 25.968471-22.539053 38.341428-28.058224l27.014357 27.013347c-15.218858 2.906474-28.901192 10.428578-41.042964 22.56833-7.088 7.088-11.459321 14.046779-13.113962 20.871289-1.65666 6.826529-0.305891 12.417377 4.052305 16.773554 3.484942 3.485951 8.147011 5.244575 13.986207 5.272842 5.838186 0.029277 16.976472-3.178041 33.418897-9.62902 19.170209-7.669497 34.464783-10.819271 45.879684-9.454369 11.41692 1.365911 21.537587 6.464103 30.367049 15.293565 12.956473 12.954454 18.24143 27.420193 15.860928 43.395199-2.382521 15.976015-12.025674 32.416421-28.930469 49.321216-15.454082 15.454082-30.614387 25.620178-45.487981 30.499299L337.42859 728.607765z" p-id="1622"></path><path d="M564.169893 569.837971l-79.21176 79.21075L349.977207 514.066787l28.755818-28.756828 111.45353 111.45353 50.453923-50.455942L564.169893 569.837971z" p-id="1623"></path><path d="M704.117769 429.889085l-31.370534 31.370534-41.043974-20.825859-49.059744 49.059744 21.00152 40.869323-31.196893 31.195883L486.875255 377.168739l33.810599-33.810599L704.117769 429.889085zM602.685972 425.008955l-62.131305-31.457355c-3.951351-1.974666-8.570009-5.198136-13.855976-9.67243l-0.784415 0.784415c3.603058 4.299643 6.623611 8.888015 9.063676 13.768145l31.718827 62.566418L602.685972 425.008955z" p-id="1624"></path><path d="M801.10556 332.901295l-79.907335 79.908345L586.21629 277.827704l76.770685-76.770685 23.528405 23.528405-48.015877 48.014867 31.806657 31.806657 44.616746-44.616746 23.440575 23.440575-44.615736 44.616746 32.677892 32.677892 51.152526-51.151517L801.10556 332.901295z" p-id="1625"></path><path d="M1008.563585 378.936449c0 0-40.339313-218.922394-48.78212-258.303651-8.442807-39.383276-18.564483-48.247062-55.155364-55.157383-36.59088-6.910321-258.308698-48.78111-258.308698-48.78111-3.172993-0.274596-6.367187-0.274596-9.544218 0-12.484007 1.077182-24.675246 6.385358-34.22855 15.939672L475.519917 159.657686 326.774884 308.402719l-55.156373 55.156373L17.405528 617.778132c-21.539606 21.539606-21.538597 56.462722 0 78.004347l312.07796 312.072912c1.820206 1.824244 3.745404 3.477875 5.746318 4.993199 17.75483 13.455187 41.785988 14.734278 60.732078 3.834244 11.331109-8.740622 36.697892-33.593548 63.622399-62.20702 0.318006-0.291758 0.648127-0.558277 0.956037-0.86215 0.792491-0.791482 1.505228-1.626374 2.181622-2.482466 3.982647-5.051752 5.954284-11.167563 5.903807-17.275297l0.049468 0c0.017162-17.64479 6.766966-35.283522 20.242344-48.732652 13.034208-13.00594 29.971308-19.69719 47.032582-20.106055 0.579478-0.015143 1.157946-0.042401 1.739442-0.039372 31.761227 0.030286 63.53255-12.052932 87.790855-36.264798 22.797496-22.754086 34.896867-52.170145 36.295084-81.99406 0.08783-1.908036 0.137298-3.817081 0.139317-5.727137l0.002019 0.00101c0.017162-17.64378 6.764947-35.281503 20.240324-48.732652 13.474368-13.44812 31.128244-20.163599 48.774043-20.147446 0.514867 0 1.030743-0.011105 1.547629-0.016153 31.240303-0.359397 62.376624-12.431511 86.240197-36.248645 22.809611-22.763172 34.908982-52.195384 36.297103-82.040499 0.08783-1.893902 0.136288-3.788814 0.137298-5.685745 0.018172-17.64378 6.763937-35.282513 20.241334-48.732652 13.478406-13.450139 31.128244-20.163599 48.772024-20.146437l0-0.014134c7.215203 0.130231 14.468768-2.536981 19.978853-8.034951l48.479257-48.479257c0.404827-0.403817 0.787443-0.81773 1.174098-1.227604 2.191718-2.667212 4.316805-5.398026 6.38132-8.189412 4.838739-7.604886 7.634163-16.136533 8.385263-24.811534C1008.83919 385.308683 1008.83919 382.11348 1008.563585 378.936449zM944.232487 395.600972l0.002019 0.003029c-0.68447 0.68447-1.386102 1.388121-2.124078 2.124078-5.539362 5.5434-12.501169 12.506217-20.02933 20.02832-0.00101-0.00101-0.00101-0.004038-0.002019-0.005048-4.362235 4.26229-9.78247 6.768985-15.403605 7.559457 0.00101 0.008076 0.005048 0.015143 0.006057 0.023219-25.692865 3.62123-50.473104 15.271355-70.253077 35.012965-16.630199 16.596884-27.568596 36.740293-32.810142 58.002274-2.405741 9.747136-3.614163 19.732524-3.62224 29.717913-0.0212 17.645799-6.768985 35.28857-20.244363 48.739719-13.474368 13.446101-31.125215 20.16158-48.772024 20.144418l0 0.002019c-12.087256-0.012115-24.175522 1.738433-35.854924 5.236499-19.000606 5.694831-36.909896 16.03154-51.933912 31.02729-16.696829 16.666543-27.657436 36.902829-32.875763 58.256679-2.36334 9.668392-3.550562 19.563931-3.557629 29.462498l-0.002019-0.00101c-0.017162 17.645799-6.763937 35.284532-20.242344 48.733662-13.474368 13.450139-31.126225 20.164609-48.772024 20.147446-12.436558-0.013124-24.872107 1.841406-36.858409 5.5434-18.627075 5.756413-36.17192 15.98914-50.931436 30.720389-19.268135 19.227753-30.867782 43.219539-34.849419 68.190581-0.977237 4.552029-3.117468 8.891044-6.417664 12.572847-12.758602 13.693439-22.483529 23.813097-25.050796 26.054282-9.056609 7.909768-25.235542 5.871501-34.651548-3.545514L75.909545 676.278111c-10.769803-10.768793-10.768793-28.232875 0.00101-39.002678l195.704928-195.710985 55.158392-55.158392 168.678456-168.678456L622.044965 91.136985l9.149487-9.149487c7.140497-6.88912 17.073389-9.153525 26.069425-6.8235l0.054515-0.056534c50.772938 10.346805 205.994188 42.041402 219.72599 45.524325 16.442424 4.170421 24.589435 13.709592 27.58071 27.578691 2.449151 11.367452 34.524346 163.206734 46.02001 217.637246 0.178689 0.829844 0.350311 1.643536 0.515876 2.426941 0.312958 1.489076 0.608754 2.89234 0.885369 4.203736C953.133626 380.692044 950.54112 389.293349 944.232487 395.600972z" p-id="1626"></path></svg>