<?xml version="1.0" standalone="no"?><!DOCTYPE svg PUBLIC "-//W3C//DTD SVG 1.1//EN" "http://www.w3.org/Graphics/SVG/1.1/DTD/svg11.dtd"><svg t="1523863756648" class="icon" style="" viewBox="0 0 1024 1024" version="1.1" xmlns="http://www.w3.org/2000/svg" p-id="1899" xmlns:xlink="http://www.w3.org/1999/xlink" width="200" height="200"><defs><style type="text/css"></style></defs><path d="M508 916.8c-49.6 0-92.8-16-124-45.6l-0.8-0.8H133.6c-38.4 0-69.6-31.2-69.6-69.6V172c0-38.4 31.2-69.6 69.6-69.6h238.4c52 0 100.8 23.2 133.6 64l3.2 3.2 3.2-3.2c32.8-40.8 81.6-64 133.6-64h238.4c38.4 0 69.6 31.2 69.6 69.6v629.6c0 38.4-31.2 69.6-69.6 69.6H632.8l-0.8 0.8c-31.2 29.6-74.4 44.8-124 44.8z m136-772.8c-72 8.8-110.4 40-110.4 89.6v639.2l4-0.8c21.6-4.8 40.8-15.2 55.2-31.2l2.4-3.2c4-6.4 9.6-10.4 12-10.4h301.6l-1.6-683.2H644z m-220.8 697.6c14.4 15.2 33.6 25.6 57.6 30.4l4 0.8V233.6c0-62.4-60.8-86.4-112.8-88.8H106.4v683.2H408c1.6 0 9.6 5.6 12.8 10.4l2.4 3.2z" fill="" p-id="1900"></path></svg>