<?xml version="1.0" standalone="no"?><!DOCTYPE svg PUBLIC "-//W3C//DTD SVG 1.1//EN" "http://www.w3.org/Graphics/SVG/1.1/DTD/svg11.dtd"><svg t="1523863721816" class="icon" style="" viewBox="0 0 1024 1024" version="1.1" xmlns="http://www.w3.org/2000/svg" p-id="1584" xmlns:xlink="http://www.w3.org/1999/xlink" width="200" height="200"><defs><style type="text/css"></style></defs><path d="M237.358431 284.464797l131.472334 375.310851-27.569916-19.554358L890.249275 640.22129c16.136515 0 29.212322 13.0799 29.212322 29.213345 0 16.129352-13.075807 29.205159-29.212322 29.205159L341.259826 698.639794c-12.409634 0-23.465434-7.836479-27.566846-19.549242L109.05016 94.8963l27.567869 19.553335L77.586564 114.449635c-16.129352 0-29.207206-13.074783-29.207206-29.212322 0-16.129352 13.077853-29.207206 29.207206-29.207206l59.032488 0c12.409634 0 23.466458 7.842619 27.566846 19.555381l52.728922 150.525272 710.724017 0c18.48705 0 32.326243 16.962324 28.612665 35.077913l-46.633087 227.389894c-2.547009 12.408611-12.796444 21.75549-25.382087 23.160489l-431.515944 48.065715c-16.036231 1.786693-30.482245-9.761318-32.266891-25.797549-1.783623-16.030092 9.764388-30.475082 25.798573-32.257681l410.798087-47.145763c0 0 20.75879-96.119151 35.926234-170.074513C893.311007 282.900162 362.038058 284.149619 237.358431 284.464797L237.358431 284.464797zM407.438061 818.372759c23.362081 0 42.36897 19.004843 42.36897 42.3659 0 23.360034-19.006889 42.364877-42.36897 42.364877-23.360034 0-42.363853-19.004843-42.363853-42.364877C365.073184 837.377602 384.078027 818.372759 407.438061 818.372759M407.438061 762.594385c-54.202483 0-98.142228 43.941791-98.142228 98.144274 0 54.207599 43.939745 98.143251 98.142228 98.143251s98.147344-43.936675 98.147344-98.143251C505.584382 806.536176 461.640544 762.594385 407.438061 762.594385L407.438061 762.594385zM816.372707 818.372759c23.357987 0 42.360783 19.004843 42.360783 42.3659 0 23.360034-19.002796 42.364877-42.360783 42.364877-23.360034 0-42.364877-19.004843-42.364877-42.364877C774.007831 837.377602 793.012673 818.372759 816.372707 818.372759M816.372707 762.594385c-54.206576 0-98.143251 43.941791-98.143251 98.144274 0 54.207599 43.937698 98.143251 98.143251 98.143251 54.200436 0 98.139158-43.936675 98.139158-98.143251C914.512888 806.536176 870.573143 762.594385 816.372707 762.594385L816.372707 762.594385zM816.372707 958.88191" p-id="1585"></path></svg>